<?xml version="1.0" encoding="UTF-8"?>
<svg width="600px" height="600px" viewBox="0 0 600 600" version="1.1" xmlns="http://www.w3.org/2000/svg" xmlns:xlink="http://www.w3.org/1999/xlink">
    <title>Artboard</title>
    <g id="Artboard" stroke="none" stroke-width="1" fill="none" fill-rule="evenodd">
        <rect id="Rectangle" fill-rule="nonzero" x="0" y="0" width="600" height="600"></rect>
        <path d="M300,344.75 L300.39,344.85 L300.39,344.85 L470.45,390.42 L471.56,390.72 L471.56,515.03 L470.45,515.33 L300.39,560.9 L300,561 L299.61,560.9 L129.55,515.33 L128.44,515.03 L128.44,390.72 L129.55,390.42 L299.61,344.85 L300,344.75 Z M372.53,418.52 L300,437.95 L299.87,437.92 L227.47,418.52 L227.47,539.49 L300,558.92 L372.53,539.49 L372.53,418.52 Z M396.53,412.09 L373.53,418.25 L373.53,539.22 L379.96,537.5 L396.53,533.06 L396.53,412.09 Z M203.47,412.09 L203.47,533.06 L222.56,538.18 L222.56,538.17 L226.47,539.22 L226.47,418.25 L203.47,412.09 Z M130.44,392.52 L130.44,513.49 L202.47,532.79 L202.47,411.82 L130.44,392.52 Z M469.56,392.52 L397.53,411.82 L397.53,532.79 L469.56,513.49 L469.56,392.52 Z M300,346.82 L131.87,391.87 C131.87,391.87 148.13624,396.229168 165.05313,400.762703 L167.17,401.33 C184.82,406.06 202.47,410.79 202.47,410.79 L202.47,410.79 C203.016432,410.936444 227.47,417.49 227.47,417.49 L227.47,417.49 L300,436.92 L468.13,391.87 L300,346.82 Z M91.86,312.15 C94.01,310.91 96.77,311.65 98.01,313.8 C99.25,315.95 98.51,318.71 96.36,319.95 L96.36,319.95 L54.79,343.95 C54.1,344.35 53.33,344.56 52.55,344.56 C52.16,344.56 51.77,344.5 51.38,344.4 C50.22,344.09 49.25,343.35 48.65,342.3 C48.05,341.25 47.89,340.04 48.2,338.88 C48.51,337.72 49.26,336.75 50.3,336.15 L50.3,336.15 L91.87,312.15 Z M504.72,311.7 C505.88,311.39 507.09,311.55 508.13,312.15 L508.13,312.15 L549.7,336.15 C550.74,336.75 551.49,337.72 551.8,338.88 C552.11,340.05 551.95,341.26 551.35,342.3 C550.75,343.34 549.78,344.09 548.62,344.4 C548.24,344.51 547.84,344.56 547.45,344.56 C546.67,344.56 545.9,344.35 545.21,343.95 L545.21,343.95 L503.64,319.95 C501.49,318.71 500.75,315.95 501.99,313.8 C502.59,312.76 503.56,312.01 504.72,311.7 Z M94.11,312.54 C93.52,312.54 92.92,312.69 92.37,313.01 L92.37,313.01 L50.8,337.01 C49.99,337.48 49.41,338.24 49.17,339.14 C48.93,340.05 49.06,340.99 49.52,341.8 C49.98,342.61 50.74,343.19 51.64,343.43 C52.55,343.67 53.49,343.55 54.3,343.08 L54.3,343.08 L95.87,319.08 L95.87,319.07 C97.54,318.11 98.11,315.96 97.15,314.29 C96.5,313.17 95.32,312.54 94.11,312.54 Z M505.88,312.55 C504.67,312.55 503.49,313.18 502.84,314.3 C501.87,315.97 502.45,318.12 504.12,319.08 L504.12,319.08 L545.69,343.08 C546.5,343.55 547.45,343.67 548.35,343.43 C549.26,343.19 550.01,342.61 550.48,341.8 L550.48,341.8 L550.47,341.81 C550.940373,341 551.06,340.05 550.82,339.15 C550.58,338.24 550,337.49 549.19,337.02 L549.19,337.02 L507.62,313.02 C507.07,312.7 506.47,312.55 505.88,312.55 Z M255.77,225.53 C277.33,225.53 294.81,243.01 294.81,264.57 C294.81,286.13 277.33,303.61 255.77,303.61 C234.21,303.61 216.73,286.13 216.73,264.57 C216.73,243.01 234.21,225.53 255.77,225.53 Z M173.68,227 L216.01,300.11 L131.35,300.11 L173.68,227 Z M364.8,229.04 L372.11,236.35 L343.88,264.57 L372.11,292.8 L364.8,300.11 L336.57,271.88 L308.34,300.11 L301.03,292.8 L329.26,264.57 L301.03,236.35 L308.34,229.04 L336.57,257.27 L364.8,229.04 Z M456.13,229.04 L456.13,300.11 L385.06,300.11 L385.06,229.04 L456.13,229.04 Z M255.77,235.86 C239.94,235.86 227.06,248.74 227.06,264.57 C227.06,280.4 239.94,293.28 255.77,293.28 C271.6,293.28 284.48,280.4 284.48,264.57 C284.48,248.74 271.6,235.86 255.77,235.86 Z M445.8,239.38 L395.4,239.38 L395.4,289.78 L445.8,289.78 L445.8,239.38 Z M173.68,247.63 L149.28,289.77 L198.08,289.77 L173.68,247.63 Z M567.64,260.2 C570.12,260.2 572.14,262.22 572.14,264.7 C572.14,267.18 570.12,269.2 567.64,269.2 L567.64,269.2 L519.64,269.2 C517.16,269.2 515.14,267.18 515.14,264.7 C515.14,262.22 517.16,260.2 519.64,260.2 L519.64,260.2 Z M80.36,260.2 C82.84,260.2 84.86,262.22 84.86,264.7 C84.86,267.18 82.84,269.2 80.36,269.2 L80.36,269.2 L32.36,269.2 C29.88,269.2 27.86,267.18 27.86,264.7 C27.86,262.22 29.88,260.2 32.36,260.2 L32.36,260.2 Z M567.64,261.2 L519.64,261.2 C517.71,261.2 516.14,262.77 516.14,264.7 C516.14,266.63 517.71,268.2 519.64,268.2 L519.64,268.2 L567.64,268.2 C569.57,268.2 571.14,266.63 571.14,264.7 C571.14,262.77 569.57,261.2 567.64,261.2 L567.64,261.2 Z M80.36,261.2 L32.36,261.2 C30.43,261.2 28.86,262.77 28.86,264.7 C28.86,266.63 30.43,268.2 32.36,268.2 L32.36,268.2 L80.36,268.2 C82.29,268.2 83.86,266.63 83.86,264.7 C83.86,262.77 82.29,261.2 80.36,261.2 L80.36,261.2 Z M545.2,185.47 C547.35,184.23 550.11,184.97 551.35,187.12 C551.95,188.16 552.11,189.37 551.8,190.53 C551.49,191.69 550.74,192.66 549.7,193.26 L549.7,193.26 L508.13,217.26 C507.44,217.66 506.67,217.86 505.89,217.86 C505.5,217.86 505.11,217.8 504.72,217.7 L504.72,217.7 L504.71,217.72 C503.55,217.41 502.58,216.66 501.98,215.62 C500.74,213.47 501.48,210.71 503.63,209.47 L503.63,209.47 Z M48.65,187.11 C49.89,184.96 52.65,184.22 54.8,185.46 L54.8,185.46 L96.37,209.46 L96.36,209.44 C98.51,210.68 99.25,213.44 98.01,215.59 C97.41,216.63 96.44,217.38 95.28,217.69 C94.89,217.8 94.5,217.85 94.11,217.85 C93.33,217.85 92.56,217.65 91.87,217.25 L91.87,217.25 L50.3,193.25 C49.26,192.65 48.51,191.68 48.2,190.52 C47.89,189.36 48.05,188.15 48.65,187.11 Z M52.56,185.86 C51.35,185.86 50.17,186.49 49.52,187.61 C49.049627,188.42 48.93,189.37 49.17,190.27 C49.41,191.17 49.99,191.92 50.8,192.39 L50.8,192.39 L92.37,216.39 C93.18,216.86 94.13,216.98 95.03,216.74 C95.93,216.5 96.68,215.92 97.15,215.11 C98.12,213.44 97.54,211.29 95.87,210.33 L95.87,210.33 L54.3,186.33 C53.75,186.01 53.15,185.86 52.56,185.86 Z M547.45,185.85 C546.86,185.85 546.26,186 545.71,186.32 L545.71,186.32 L504.14,210.32 L504.13,210.32 C502.46,211.28 501.89,213.43 502.85,215.1 C503.32,215.91 504.08,216.49 504.98,216.73 C505.89,216.97 506.83,216.85 507.64,216.38 L507.64,216.38 L549.21,192.38 C550.02,191.92 550.6,191.17 550.84,190.26 C551.08,189.35 550.960373,188.41 550.49,187.6 C549.84,186.48 548.66,185.85 547.45,185.85 Z M387.64,43.54 C390.5,43.54 392.68,44.56 394.11,46.57 L394.11,46.57 L394.19,46.65 L394.25,46.77 C395.97,49.18 420.11,83.43 414.22,95.12 C413.78,95.98 413.22,96.82 412.55,97.64 L412.55,97.64 L460.07,110.37 L460.09,110.37 C466.86,112.18 471.58,118.34 471.58,125.34 L471.58,125.34 L471.58,145.58 L470.47,145.88 L300.41,191.45 L300.02,191.55 L299.63,191.45 L129.57,145.88 L128.46,145.58 L128.46,125.34 C128.46,118.34 133.19,112.18 139.95,110.37 L139.95,110.37 L187.47,97.64 C186.8,96.83 186.24,95.98 185.8,95.12 C179.9,83.42 204.09,49.13 205.77,46.77 L205.77,46.77 L205.83,46.64 L205.91,46.56 C207.35,44.56 209.52,43.54 212.38,43.54 C217.96,43.54 226.38,47.54 238.1,55.76 C243.44,59.51 253.31,67.94 263.17,77.36 L263.17,77.36 L290.3,70.09 C293.47,69.24 296.73,68.81 300.01,68.81 C303.29,68.81 306.56,69.24 309.72,70.09 L309.72,70.09 L336.85,77.36 C346.7,67.94 356.57,59.51 361.92,55.76 C373.64,47.54 382.06,43.54 387.64,43.54 Z M310.69,124.41 C309,124.73 307.47,124.79 306.53,124.79 L293.284261,124.789141 C292.335289,124.780844 290.897333,124.708667 289.32,124.41 L289.32,124.41 L237.48,138.3 C231.59,139.88 227.47,145.24 227.47,151.34 L227.47,151.34 L227.47,170.05 L227.48,170.05 L300.01,189.48 L372.54,170.05 L372.54,151.34 C372.54,145.24 368.42,139.88 362.53,138.3 L362.53,138.3 Z M257.73,120.01 L213.48,131.87 C207.59,133.45 203.47,138.81 203.47,144.91 L203.47,144.91 L203.47,163.62 L226.47,169.78 L226.47,151.33 C226.47,144.78 230.89,139.03 237.22,137.33 L237.22,137.33 L287.3,123.91 C285.82,123.45 284.33,122.75 283.12,121.7 C282.51,121.73 281.85,121.73 281.15,121.73 C275.94,121.73 267.5,121.17 257.73,120.01 L257.73,120.01 Z M342.27,120.02 C332.5,121.18 324.06,121.74 318.85,121.74 C318.15,121.74 317.49,121.73 316.88,121.71 C315.67,122.76 314.19,123.46 312.7,123.92 L312.7,123.92 L362.78,137.34 C369.11,139.03 373.53,144.79 373.53,151.34 L373.53,151.34 L373.53,169.78 L396.53,163.62 L396.53,144.92 C396.53,138.82 392.41,133.46 386.52,131.88 L386.52,131.88 Z M411.01,99.3 C399.81,110.06 368.98,116.64 344.92,119.69 L344.92,119.69 L386.78,130.91 C393.11,132.6 397.53,138.36 397.53,144.91 L397.53,144.91 L397.53,163.35 L469.56,144.05 L469.56,125.35 C469.56,119.25 465.44,113.89 459.55,112.31 L459.55,112.31 Z M188.99,99.29 L140.45,112.3 C134.55,113.88 130.44,119.24 130.44,125.34 L130.44,125.34 L130.44,144.04 L202.47,163.34 L202.47,144.9 C202.47,138.35 206.89,132.6 213.22,130.9 L213.22,130.9 L255.08,119.68 C231.02,116.63 200.2,110.05 188.99,99.29 L188.99,99.29 Z M300,102.8 C295.77,102.8 291.14,104.23 287.7,106.77 C287.56,106.87 287.43,106.98 287.3,107.09 L287.3,107.09 L286.95,107.38 C286.74,107.56 286.55,107.74 286.36,107.93 L286.36,107.93 L286.35,107.93 C284.78,109.41 283.64,111.11 283.01,112.86 C283,112.87 283,112.88 283,112.89 C282.92,113.12 282.85,113.36 282.79,113.59 C282.71,113.89 282.64,114.19 282.59,114.5 C282.58,114.55 282.56,114.64 282.56,114.64 L282.56,114.64 L282.55,114.64 C282.51,114.91 282.48,115.17 282.47,115.42 L282.47,115.42 L282.47,116.13 C282.48,116.19 282.49,116.25 282.49,116.32 C282.5,116.48 282.52,116.64 282.54,116.8 C282.55,116.89 282.57,116.97 282.59,117.06 L282.59,117.06 L282.68,117.45 C282.71,117.55 282.74,117.64 282.77,117.73 C282.81,117.85 282.85,117.96 282.89,118.07 L282.89,118.07 L283.01,118.34 C283.06,118.45 283.11,118.55 283.17,118.65 C283.22,118.74 283.27,118.83 283.32,118.91 C283.38,119.01 283.45,119.1 283.52,119.2 L283.52,119.2 L283.7,119.43 C283.76,119.51 283.82,119.58 283.89,119.65 C285.67,121.62 289.23,122.8 293.49,122.8 L293.49,122.8 L306.54,122.8 C310.8,122.8 314.36,121.62 316.14,119.65 C316.21,119.57 316.28,119.5 316.34,119.42 C316.4,119.35 316.45,119.28 316.51,119.2 C316.59,119.1 316.66,119 316.72,118.9 L316.72,118.9 L316.87,118.65 C316.93,118.54 316.98,118.44 317.03,118.33 C317.07,118.25 317.11,118.16 317.15,118.07 L317.15,118.07 L317.27,117.72 C317.3,117.63 317.33,117.54 317.35,117.45 C317.39,117.32 317.41,117.18 317.44,117.05 C317.46,116.97 317.48,116.89 317.49,116.81 C317.51,116.65 317.53,116.48 317.54,116.31 C317.54,116.26 317.55,116.2 317.55,116.14 C317.57,115.66 317.54,115.17 317.46,114.65 C317.45,114.59 317.43,114.53 317.42,114.47 C317.37,114.18 317.3,113.89 317.23,113.61 C317.16,113.37 317.09,113.13 317.01,112.89 L317.01,112.89 L317.01,112.88 C316.39,111.12 315.24,109.41 313.67,107.93 L313.67,107.93 L313.64,107.91 C313.46,107.73 313.26,107.56 313.06,107.38 L313.06,107.38 L312.65,107.05 C312.53,106.96 312.43,106.87 312.31,106.78 C308.86,104.23 304.23,102.8 300,102.8 Z M205.179,51.133 L204.951551,51.4735711 C197.025788,63.255078 183.5408,86.2011 187.58,94.23 C196.53,111.97 264.14,120.09 282.65,119.73 C282.64,119.71 282.63,119.68 282.61,119.66 C282.57,119.61 282.54,119.55 282.51,119.5 C282.41,119.35 282.32,119.2 282.24,119.05 L282.24,119.05 L282.15,118.87 C282.07,118.72 282,118.57 281.94,118.41 C281.91,118.35 281.88,118.28 281.86,118.21 C281.8,118.06 281.75,117.91 281.71,117.75 C281.69,117.68 281.67,117.6 281.65,117.52 C281.61,117.37 281.59,117.22 281.56,117.07 L281.56,117.07 L281.52,116.8 C281.5,116.66 281.48,116.51 281.48,116.37 C281.47,116.27 281.46,116.16 281.46,116.05 L281.46,116.05 L281.46,115.67 C281.47,115.54 281.47,115.41 281.47,115.27 L281.47,115.27 L281.49,115.09 C281.51,114.9 281.52,114.71 281.55,114.51 C281.56,114.47 281.58,114.43 281.58,114.38 C281.64,114.03 281.72,113.68 281.81,113.34 C281.85,113.17 281.9,113 281.95,112.84 L281.95,112.84 L282.13,112.35 C282.74,110.68 283.72,109.17 284.98,107.86 C284.94,107.86 284.91,107.84 284.88,107.84 C272.44,104.85 244.69,91.5 225.45,77.25 C225.44,77.24 225.42,77.23 225.42,77.23 C224.99,76.91 224.56,76.59 224.14,76.27 L224.14,76.27 L224.05,76.2 C223.65,75.89 223.25,75.59 222.86,75.28 L222.86,75.28 L222.71,75.16 C222.33,74.87 221.96,74.58 221.6,74.29 C221.52,74.23 221.45,74.17 221.38,74.11 C221.04,73.84 220.7,73.56 220.37,73.29 L220.37,73.29 L220.1,73.06 C219.79,72.8 219.48,72.55 219.18,72.29 L219.18,72.29 L218.85,72.01 C218.57,71.77 218.29,71.54 218.02,71.3 C217.89,71.18 217.77,71.07 217.64,70.96 L217.64,70.96 L216.89,70.3 L216.89,70.3 L216.47,69.92 C216.24,69.72 216.02,69.51 215.8,69.31 L215.8,69.31 L215.33,68.86 L215.33,68.86 L214.76,68.32 C214.58,68.15 214.41,67.98 214.24,67.81 C214.08,67.65 213.92,67.49 213.76,67.33 C213.56,67.14 213.38,66.94 213.19,66.75 C213.06,66.62 212.93,66.48 212.8,66.35 C212.59,66.13 212.39,65.91 212.19,65.69 L212.19,65.69 L211.89,65.36 C211.66,65.11 211.44,64.87 211.23,64.62 L211.23,64.62 L211.02,64.38 C210.78,64.1 210.55,63.82 210.32,63.54 L210.32,63.54 L210.2,63.4 C209.94,63.08 209.69,62.77 209.45,62.45 C209.44,62.44 209.44,62.43 209.44,62.43 C207.97,60.49 206.83,58.6 206.09,56.78 C206.08,56.76 206.07,56.74 206.07,56.72 C205.89,56.26 205.73,55.81 205.6,55.36 C205.55,55.18 205.51,55.01 205.47,54.83 C205.4,54.54 205.33,54.26 205.28,53.98 C205.25,53.79 205.23,53.6 205.21,53.41 C205.18,53.15 205.15,52.89 205.14,52.64 L205.14,52.64 L205.14,52.08 C205.14,51.83 205.15,51.59 205.17,51.35 C205.18,51.27 205.18,51.18 205.18,51.1 L205.179,51.133 Z M394.84,51.15 L394.84,51.38 C394.87,51.62 394.87,51.86 394.87,52.11 L394.87,52.11 L394.87,52.66 C394.85,52.91 394.82,53.17 394.79,53.43 L394.79,53.43 L394.79,53.48 C394.77,53.66 394.75,53.84 394.72,54.03 C394.67,54.31 394.59,54.6 394.52,54.89 C394.47,55.07 394.44,55.24 394.39,55.41 C394.26,55.87 394.1,56.33 393.91,56.8 L393.91,56.8 L393.90125,56.815 L393.90125,56.815 L393.9,56.83 C393.16,58.64 392.02,60.53 390.55,62.47 L390.55,62.47 L390.47,62.57 C390.25,62.86 390.02,63.15 389.79,63.44 L389.79,63.44 L389.61,63.66 C389.4,63.91 389.2,64.16 388.98,64.41 L388.98,64.41 L388.71,64.72 C388.52,64.94 388.32,65.17 388.12,65.39 C388.01,65.52 387.88,65.65 387.76,65.78 C387.58,65.98 387.4,66.17 387.21,66.37 C387.07,66.53 386.91,66.68 386.76,66.84 L386.76,66.84 L386.25,67.36 C386.07,67.53 385.89,67.71 385.71,67.89 C385.56,68.05 385.41,68.2 385.25,68.35 C385.05,68.54 384.84,68.74 384.63,68.94 L384.63,68.94 L384.21,69.34 L384.21,69.34 L383.49,70 C383.36,70.11 383.24,70.22 383.12,70.33 C382.86,70.56 382.59,70.8 382.32,71.04 C382.21,71.13 382.11,71.23 382,71.32 C381.71,71.57 381.42,71.82 381.12,72.07 C381.03,72.15 380.94,72.23 380.84,72.31 L380.84,72.31 L379.86,73.12 L379.86,73.12 L379.65,73.3 C379.3,73.59 378.95,73.87 378.59,74.16 L378.59,74.16 L378.42,74.29 C378.04,74.59 377.66,74.89 377.27,75.19 L377.27,75.19 L377.16,75.28 C376.75,75.6 376.34,75.91 375.92,76.23 C375.9,76.25 375.89,76.26 375.87,76.27 C356.6,90.88 327.85,104.8 315.12,107.85 C315.08,107.85 315.05,107.87 315.02,107.87 C316.28,109.18 317.26,110.69 317.87,112.36 C317.93,112.52 318,112.69 318.05,112.85 C318.1,113.02 318.15,113.18 318.19,113.35 C318.28,113.69 318.35,114.03 318.41,114.37 C318.42,114.42 318.44,114.46 318.44,114.51 C318.47,114.71 318.48,114.91 318.5,115.11 C318.51,115.16 318.52,115.22 318.52,115.27 C318.53,115.41 318.53,115.55 318.53,115.68 L318.53,115.68 L318.53,116.06 C318.53,116.17 318.51,116.27 318.51,116.38 C318.5,116.53 318.49,116.67 318.47,116.81 C318.46,116.9 318.45,116.99 318.43,117.08 C318.4,117.23 318.37,117.38 318.34,117.53 L318.34,117.53 L318.28,117.77 C318.24,117.92 318.19,118.07 318.14,118.22 L318.14,118.22 L318.06,118.43 C318,118.58 317.93,118.73 317.86,118.88 L317.86,118.88 L317.77,119.06 C317.69,119.21 317.6,119.36 317.51,119.5 C317.48,119.55 317.45,119.61 317.41,119.66 C317.4,119.68 317.39,119.71 317.37,119.73 C317.78,119.74 318.21,119.74 318.67,119.74 C338.84,119.74 403.69,111.57 412.44,94.22 C414.62,89.89 412,80.67 404.86,67.57 C401.22,60.87 397.25,54.74 394.84,51.15 L394.84,51.15 Z M389.13,45.69 C384.15,44.78 375.62,48.62 363.08,57.42 C352.42,64.89 323.65,91.11 313.33,106.32 C313.56,106.5 313.77,106.69 313.98,106.88 C314.05,106.93 314.12,106.98 314.18,107.04 L314.18,107.04 L314.48,106.97 L314.48,106.97 L314.89,106.88 C315.05,106.84 315.21,106.8 315.38,106.76 L315.38,106.76 L315.77,106.66 L315.77,106.66 L316.35,106.5 C316.46,106.47 316.58,106.43 316.7,106.4 C316.91,106.34 317.14,106.28 317.36,106.21 L317.36,106.21 L317.68,106.12 C317.93,106.04 318.18,105.96 318.44,105.88 L318.44,105.88 L318.7,105.8 C318.99,105.7 319.28,105.61 319.58,105.51 L319.58,105.51 L319.76,105.45 C320.09,105.34 320.42,105.23 320.76,105.11 C320.79,105.09 320.83,105.08 320.86,105.07 C337.62,99.22 367.27,83.66 383.16,69 L383.16,69 L383.25,68.92 C383.55,68.64 383.84,68.36 384.13,68.09 L384.13,68.09 L384.32,67.91 C384.56,67.67 384.8,67.44 385.03,67.21 C385.14,67.11 385.25,67 385.35,66.9 C385.54,66.71 385.72,66.52 385.91,66.33 C386.04,66.18 386.19,66.04 386.32,65.9 C386.47,65.74 386.61,65.59 386.75,65.44 C386.92,65.26 387.09,65.08 387.25,64.9 L387.25,64.9 L387.55,64.56 C387.74,64.34 387.94,64.12 388.12,63.91 L388.12,63.91 L388.31,63.68 C388.52,63.43 388.74,63.18 388.94,62.93 C388.96,62.89 388.99,62.86 389.02,62.82 C389.25,62.53 389.48,62.25 389.7,61.96 C389.71,61.95 389.71,61.94 389.71,61.94 C391.16,60.03 392.28,58.17 393,56.38 C393.5,55.14 393.79,53.96 393.87,52.84 L393.87,52.84 L393.87,52.7 C393.88,52.38 393.9,52.06 393.88,51.75 L393.88,51.75 L393.85,51.48 C393.83,51.21 393.81,50.95 393.76,50.7 L393.76,50.7 L393.65,50.29 C393.6,50.09 393.55,49.89 393.49,49.7 C393.43,49.51 393.35,49.34 393.27,49.16 C393.21,49.02 393.16,48.88 393.09,48.74 C392.97,48.51 392.84,48.3 392.7,48.08 C392.65,47.98 392.6,47.89 392.54,47.8 C391.73,46.63 390.61,45.92 389.11,45.65 L389.11,45.65 Z M212.42,45.52 C211.88,45.52 211.37,45.56 210.9,45.65 C209.4,45.92 208.28,46.63 207.47,47.8 L207.47,47.8 L207.48,47.86 C207.38,48 207.31,48.15 207.22,48.3 C207.12,48.46 207.01,48.62 206.93,48.79 C206.84,48.96 206.78,49.13 206.71,49.31 C206.65,49.45 206.58,49.59 206.53,49.74 C206.46,49.95 206.41,50.16 206.36,50.38 C206.33,50.5 206.29,50.62 206.27,50.74 C206.22,50.99 206.2,51.24 206.18,51.5 C206.17,51.6 206.15,51.69 206.15,51.79 C206.13,52.08 206.14,52.37 206.16,52.67 L206.16,52.67 L206.16,52.88 C206.18,53.2 206.23,53.53 206.29,53.87 C206.3,53.91 206.31,53.96 206.31,54.01 C206.38,54.37 206.48,54.74 206.59,55.12 C206.61,55.14 206.61,55.16 206.61,55.18 C206.73,55.58 206.87,55.99 207.04,56.4 C207.64,57.89 208.52,59.42 209.63,61 C209.64,61 209.65,61.02 209.65,61.02 C209.84,61.29 210.04,61.57 210.25,61.84 C210.28,61.89 210.31,61.93 210.35,61.98 C210.54,62.23 210.73,62.47 210.93,62.72 L210.93,62.72 L211.11,62.95 C211.28,63.16 211.46,63.38 211.64,63.59 L211.64,63.59 L211.93,63.93 C212.08,64.1 212.24,64.28 212.4,64.46 C212.53,64.61 212.66,64.76 212.8,64.91 C212.93,65.06 213.07,65.2 213.21,65.35 C213.38,65.53 213.54,65.72 213.72,65.9 L213.72,65.9 L214.06,66.25 C214.27,66.47 214.47,66.68 214.69,66.9 L214.69,66.9 L214.94,67.14 L214.94,67.14 L215.72,67.9 L215.72,67.9 L215.86,68.03 C216.17,68.32 216.48,68.62 216.8,68.91 L216.8,68.91 L217.359521,69.4224494 C233.369182,83.9514738 262.585116,99.2581395 279.17,105.05 L279.17,105.05 L279.27,105.08 C279.61,105.2 279.94,105.31 280.27,105.42 L280.27,105.42 L280.45,105.48 C280.75,105.58 281.04,105.68 281.33,105.77 L281.33,105.77 L281.57,105.85 C281.84,105.93 282.1,106.01 282.35,106.09 L282.35,106.09 L282.65,106.18 C282.88,106.25 283.11,106.32 283.33,106.38 C283.45,106.41 283.56,106.44 283.67,106.47 C283.87,106.52 284.07,106.58 284.26,106.63 L284.26,106.63 L284.63,106.72 C284.8,106.77 284.97,106.81 285.14,106.85 C285.28,106.88 285.4,106.91 285.53,106.94 C285.64,106.96 285.75,106.99 285.85,107.01 C285.92,106.96 285.99,106.91 286.05,106.85 C286.25,106.66 286.47,106.47 286.7,106.28 C276.38,91.07 247.61,64.85 236.95,57.38 C225.6,49.42 217.54,45.52 212.42,45.52 Z M309.19,72.01 C303.18,70.4 296.82,70.4 290.81,72.01 L290.81,72.01 L264.85,78.97 C273.88,87.71 282.68,97.1 287.75,104.3 C291.25,102.03 295.55,100.8 300,100.8 C304.45,100.8 308.77,102.03 312.26,104.29 C317.33,97.09 326.13,87.7 335.15,78.97 L335.15,78.97 Z" id="Combined-Shape" fill-opacity="0.3" fill="#000000" fill-rule="nonzero"></path>
    </g>
</svg>